<?xml version="1.0" ?><svg data-name="024_HOLIDAYS" id="_024_HOLIDAYS" viewBox="0 0 24 24" xmlns="http://www.w3.org/2000/svg"><defs><style>.cls-1{fill:#333;}</style></defs><path class="cls-1" d="M12,19a7.52,7.52,0,0,1-5.7-2.68A9.59,9.59,0,0,1,4,10a10.07,10.07,0,0,1,.94-4.25,1,1,0,0,1,1.34-.47,1,1,0,0,1,.47,1.33A7.93,7.93,0,0,0,6,10a7.59,7.59,0,0,0,1.8,5A5.56,5.56,0,0,0,12,17a5.56,5.56,0,0,0,4.2-2A7.59,7.59,0,0,0,18,10a7.59,7.59,0,0,0-1.8-5A5.56,5.56,0,0,0,12,3,5.34,5.34,0,0,0,8.61,4.23a1,1,0,0,1-1.4-.16,1,1,0,0,1,.15-1.4A7.36,7.36,0,0,1,12,1a7.52,7.52,0,0,1,5.7,2.68A9.59,9.59,0,0,1,20,10a9.59,9.59,0,0,1-2.3,6.32A7.52,7.52,0,0,1,12,19Z"/><path class="cls-1" d="M9,11a1,1,0,0,1-1-1A5.72,5.72,0,0,1,9.08,6.57,3.68,3.68,0,0,1,12,5a1,1,0,0,1,0,2,1.68,1.68,0,0,0-1.32.77A3.8,3.8,0,0,0,10,10,1,1,0,0,1,9,11Z"/><path class="cls-1" d="M12,23a.93.93,0,0,1-.45-.11,1,1,0,0,1-.44-1.34,1.23,1.23,0,0,0,.15-.54A1.87,1.87,0,0,0,11,20.2a2.94,2.94,0,0,1-.4-1.35,2.21,2.21,0,0,1,.71-1.56,1,1,0,0,1,1.42,1.42.51.51,0,0,0-.14.17,3.44,3.44,0,0,0,.2.42A3.65,3.65,0,0,1,13.26,21a3.24,3.24,0,0,1-.37,1.44A1,1,0,0,1,12,23Z"/></svg>