<?xml version="1.0" ?><svg height="64" id="svg8" version="1.1" viewBox="0 0 16.933333 16.933334" width="64" xmlns="http://www.w3.org/2000/svg" xmlns:cc="http://creativecommons.org/ns#" xmlns:dc="http://purl.org/dc/elements/1.1/" xmlns:inkscape="http://www.inkscape.org/namespaces/inkscape" xmlns:rdf="http://www.w3.org/1999/02/22-rdf-syntax-ns#" xmlns:sodipodi="http://sodipodi.sourceforge.net/DTD/sodipodi-0.dtd" xmlns:svg="http://www.w3.org/2000/svg"><defs id="defs2"/><g id="layer1"><path d="M 6.4823999,0 C 5.9739815,0 5.5568845,0.41709644 5.5568845,0.92551545 c -4.74e-5,0.75093575 0,1.49921055 0,2.25048555 H 2.3808838 c -0.7275469,0 -1.3218695,0.5943899 -1.3218695,1.3218697 V 7.673355 c 0,0.6449994 0.1934959,1.2457054 0.5250272,1.7471624 -0.1151353,0.066179 -0.2303234,0.1649441 -0.3689659,0.3054046 -0.19758,0.2001688 -0.3137444,0.35033 -0.36741569,0.52141 -0.0536708,0.17108 -0.0110796,0.334478 0.0335893,0.437695 0.0403522,0.09325 0.0633444,0.141203 0.0702792,0.220656 0.00694,0.07946 -0.002373,0.203913 -0.0899161,0.419608 -0.0875462,0.215691 -0.16655926,0.311231 -0.2268572,0.363282 -0.0602978,0.05205 -0.10985813,0.06799 -0.20308628,0.107486 -0.093228,0.03949 -0.23894371,0.109951 -0.32969224,0.285251 -0.08217335,0.158735 -0.10421966,0.344463 -0.10180151514,0.621144 -0.001949975,0.272484 0.0203378551,0.458206 0.10180151514,0.61546 0.0822193,0.158712 0.20295676,0.229581 0.32969224,0.284734 0.092836,0.0404 0.14278823,0.05543 0.20308628,0.107486 0.0602977,0.05205 0.13931102,0.147589 0.2268572,0.363282 0.0875472,0.215694 0.096851,0.338607 0.0899161,0.418058 -0.00694,0.07945 -0.0283842,0.128941 -0.0702792,0.222723 -0.049769,0.111408 -0.0872603,0.266615 -0.0335893,0.437695 0.0536708,0.171081 0.16983569,0.321241 0.36741569,0.52141 0.1975786,0.20017 0.3471302,0.316959 0.5172757,0.3731 0.1701453,0.05614 0.323243,0.01965 0.4356278,-0.02584 0.095375,-0.0386 0.144316,-0.06055 0.2247902,-0.06614 0.080474,-0.0056 0.2048508,0.0067 0.4201249,0.09767 0.2152734,0.09097 0.3116196,0.171291 0.3632816,0.232542 0.051664,0.06126 0.06715,0.112019 0.1069692,0.206704 0.03982,0.09469 0.1122994,0.239969 0.2852509,0.330209 0.1588614,0.08289 0.3471861,0.109223 0.6288957,0.11162 0.2817093,0.0024 0.470718,-0.01958 0.6309628,-0.09974 0.1602448,-0.08017 0.2403913,-0.206949 0.2909352,-0.326075 0.04012,-0.09456 0.058908,-0.144783 0.1116199,-0.205153 0.052712,-0.06037 0.1480236,-0.139568 0.3648321,-0.226858 0.2168071,-0.08729 0.341826,-0.09688 0.422192,-0.08991 0.080364,0.007 0.1290085,0.03194 0.2242734,0.07079 0.095265,0.03887 0.2568966,0.09125 0.4356277,0.03101 0.1203823,-0.04057 0.2329598,-0.106436 0.3591475,-0.212905 h 8.3063838 c 0.581704,0 1.058322,-0.477135 1.058322,-1.058839 V 9.4282688 c 0.33531,-0.502963 0.531746,-1.1064254 0.531746,-1.7549138 V 4.4978707 c 0,-0.7274798 -0.596906,-1.3218697 -1.324454,-1.3218697 h -3.000819 c 0.05814,-0.1210173 0.09043,-0.2567546 0.09043,-0.3989378 0,-0.2499115 -0.100632,-0.4772571 -0.263547,-0.6443986 V 1.5880005 c 0,-0.4351647 -0.35961,-0.79529211 -0.794776,-0.79529211 H 11.366806 C 11.301635,0.34650694 10.914394,0 10.451109,0 10.193057,0 9.9586312,0.1077245 9.7901741,0.28008341 9.6217088,0.1076519 9.3873544,0 9.1292393,0 8.8709923,0 8.6357341,0.10801368 8.4667544,0.28060017 8.2982525,0.10786368 8.0631615,0 7.8047861,0 7.5467992,0 7.3122987,0.1078018 7.1438514,0.28008341 6.975386,0.1076519 6.7405149,0 6.4823999,0 Z m 0,0.52916126 c 0.2244313,0 0.3963541,0.17192259 0.3963541,0.39635419 V 1.7208076 c 0,0.2244318 -0.1719228,0.3963542 -0.3963541,0.3963542 -0.2244313,0 -0.3963542,-0.1719224 -0.3963542,-0.3963542 V 0.92551545 c 0,-0.2244315 0.1719229,-0.39635419 0.3963542,-0.39635419 z m 1.3223862,0 c 0.2244313,0 0.3963542,0.17192259 0.3963542,0.39635419 V 1.7208076 c 0,0.2244318 -0.1719229,0.3963542 -0.3963542,0.3963542 -0.2244312,0 -0.3963541,-0.1719224 -0.3963541,-0.3963542 V 0.92551545 c 0,-0.2244316 0.1719229,-0.39635419 0.3963541,-0.39635419 z m 1.3244532,0 c 0.2244313,0 0.3963542,0.17192259 0.3963542,0.39635419 V 1.7208076 c 0,0.2244318 -0.1719229,0.3963542 -0.3963542,0.3963542 -0.2244313,0 -0.3989378,-0.1719224 -0.3989378,-0.3963542 V 0.92551545 c 0,-0.2244316 0.1745065,-0.39635419 0.3989378,-0.39635419 z m 1.3218697,0 c 0.224434,0 0.395837,0.17192299 0.395837,0.39635419 V 1.7208076 c -0.01201,0.2721503 -0.204027,0.3848268 -0.395837,0.3963542 -0.209807,0 -0.396354,-0.1719226 -0.396354,-0.3963542 V 0.92551545 c 0,-0.22443131 0.171924,-0.39635419 0.396354,-0.39635419 z m 0.925515,0.79322514 h 0.263547 c 0.151245,0 0.265614,0.1144991 0.265614,0.2656141 v 0.2733656 c -0.04337,-0.00632 -0.08778,-0.00982 -0.132807,-0.00982 h -0.406172 c 0.0062,-0.042817 0.0098,-0.086314 0.0098,-0.13074 z M 8.4667544,2.3657229 C 8.6357436,2.538387 8.8709258,2.646323 9.1292393,2.646323 c 0.2581812,0 0.4924602,-0.1075744 0.6609348,-0.2800833 0.1414887,0.1448193 0.3294339,0.2443203 0.5389799,0.272332 -0.0069,0.045306 -0.01085,0.091357 -0.01085,0.1384915 0,0.1421904 0.0328,0.277916 0.09095,0.3989378 H 6.0860457 V 2.556407 c 0.1204083,0.05768 0.2547697,0.089916 0.3963542,0.089916 0.2580489,0 0.4929954,-0.1072126 0.6614515,-0.2795666 0.1684375,0.1721989 0.4030184,0.2795666 0.6609347,0.2795666 0.2584461,0 0.4934566,-0.1077812 0.6619683,-0.2806001 z m 2.7770626,0.014986 h 0.529161 c 0.224431,0 0.396355,0.171922 0.396355,0.3963542 0,0.2244314 -0.171924,0.3989379 -0.396355,0.3989379 h -0.529161 c -0.224431,0 -0.396871,-0.1745073 -0.396871,-0.3989379 0.0086,-0.2489812 0.199686,-0.3944918 0.396871,-0.3963542 z M 2.3808838,3.7051623 H 15.60888 c 0.441647,0 0.794776,0.351258 0.794776,0.7927084 V 7.673355 c 0,0.595789 -0.195339,1.1448454 -0.528645,1.5895509 -0.48499,0.6428413 -1.252007,1.0547051 -2.117678,1.0547051 h -0.263547 v -0.263547 c 0,-0.4351341 -0.360157,-0.7947754 -0.795292,-0.7947754 h -1.056256 c -0.435133,0 -0.795292,0.3596402 -0.795292,0.7947754 v 0.263547 h -0.546214 l 0.01757,-0.7224291 c 0.0041,-0.1501524 -0.117482,-0.2736163 -0.26768,-0.2718153 l -1.8629166,0.025839 c -0.2142375,0.0029 -0.3363655,0.245973 -0.2108374,0.4196082 l 0.2831838,0.3886032 -0.742066,0.550348 c 0.015499,-0.03551 0.033497,-0.07554 0.052193,-0.130223 0.035306,-0.103256 0.053376,-0.273612 -0.0093,-0.427877 C 7.498197,9.9954003 7.3860019,9.8562084 7.2012117,9.6752803 7.0002325,9.4785045 6.8481984,9.3671571 6.6777347,9.3119986 6.4894285,9.2510694 6.3373719,9.3040956 6.242107,9.3430043 6.146842,9.3818633 6.0981987,9.4063233 6.0178336,9.4132833 5.9374676,9.4202833 5.8124487,9.4106933 5.5956416,9.3233673 5.3788347,9.2360783 5.2835217,9.1574002 5.2308095,9.0970269 5.1780982,9.0366575 5.1606253,8.9858646 5.1191896,8.8918737 5.0777542,8.7978846 5.0007506,8.6478179 4.8282544,8.5657987 4.6664319,8.4888594 4.4790011,8.4636642 4.1972916,8.4660642 3.9155815,8.4684719 3.7275338,8.495316 3.5683959,8.5776842 3.3962018,8.6668132 3.3229638,8.8126873 3.283145,8.9073765 3.2433274,9.0020654 3.2278386,9.0533425 3.1761758,9.1145969 3.1245143,9.1758563 3.0281655,9.2561774 2.8128942,9.3471384 2.5976194,9.4380975 2.4732443,9.4503928 2.3927693,9.4448059 2.3332188,9.4407049 2.2912592,9.426579 2.234641,9.4044986 1.8317048,8.9402816 1.5881755,8.3374884 1.5881755,7.673355 V 4.4978707 c 0,-0.4414504 0.3510622,-0.7927084 0.7927083,-0.7927084 z M 4.7600421,4.7614179 C 4.6135205,4.7617089 4.4951194,4.8810292 4.4959785,5.0275487 4.4965341,5.1730601 4.6145299,5.2908128 4.7600421,5.2910959 H 11.11101 v 0.7947753 c 0,0.4351656 0.357543,0.7921917 0.792708,0.7921917 0.43517,0 0.794776,-0.3570261 0.794776,-0.7921917 V 5.2910959 h 0.529678 c 0.145311,-5.556e-4 0.26298,-0.1182366 0.263547,-0.2635472 8.47e-4,-0.1463181 -0.117227,-0.2655622 -0.263547,-0.2661308 z m 5.023414,5.095244 -0.02532,1.0510881 -0.09405,-0.08216 C 9.5661951,10.73826 9.4190816,10.73588 9.3183735,10.81989 L 5.2871364,14.210357 3.7911191,13.020778 c -0.087228,-0.06887 -0.208213,-0.07589 -0.3028207,-0.01757 L 2.5891377,13.553556 C 2.4376208,13.261244 2.3657513,12.932715 2.3834676,12.602203 l 1.3978332,-0.6537 1.2949979,0.99011 c 0.093778,0.07157 0.2236243,0.07236 0.3183235,0.0021 L 8.7871451,10.42513 C 8.903719,10.33811 8.9281893,10.173293 8.8419211,10.056164 L 8.7070473,9.8706114 Z m 6.0889709,0.1813821 v 4.777438 c 0,0.297718 -0.231445,0.529678 -0.529161,0.529678 H 7.5148844 c 0.025257,-0.04502 0.045923,-0.09013 0.061494,-0.136941 0.056592,-0.170133 0.012112,-0.341529 -0.02532,-0.437179 -0.037433,-0.09565 -0.061089,-0.143166 -0.066662,-0.222723 -0.00557,-0.07956 0.00643,-0.201812 0.097668,-0.415991 0.091235,-0.214178 0.1719453,-0.310365 0.2346086,-0.363281 0.062662,-0.05292 0.1157117,-0.07308 0.214455,-0.115238 0.1041945,-0.04449 0.2471609,-0.13184 0.3281419,-0.30282 0.079621,-0.162682 0.1050924,-0.358456 0.1074858,-0.652667 -0.00146,-0.179267 -0.012028,-0.31991 -0.037723,-0.439762 l 1.0536716,-0.886242 0.3493289,0.312639 c 0.1684918,0.148922 0.4341978,0.03308 0.4397628,-0.191717 l 0.01602,-0.646466 h 0.559133 v 0.266131 c -1e-6,0.435222 0.360159,0.792709 0.795292,0.792709 h 1.056256 c 0.43513,7.3e-5 0.79529,-0.357575 0.79529,-0.792709 v -0.266131 h 0.263547 c 0.811514,0 1.553034,-0.306212 2.115093,-0.808728 z M 5.9005292,11.907679 5.2401114,12.397566 3.9766356,11.431227 c -0.078464,-0.06011 -0.1838989,-0.07146 -0.2733655,-0.02946 l -1.160124,0.541046 c 0.2952249,-0.661682 0.948831,-1.09368 1.6794666,-1.096043 0.7218632,-0.0024 1.3733665,0.41468 1.6779165,1.060909 z M 3.6076697,13.549939 4.76676,14.472354 C 4.1648463,14.655399 3.5008599,14.520614 3.0139136,14.09512 2.9736256,14.05992 2.9353086,14.02306 2.8986763,13.98505 Z" id="path848" style="opacity:1;fill:#000000;fill-opacity:1;stroke:none;stroke-width:0.52916664;stroke-linecap:round;stroke-linejoin:round;stroke-miterlimit:4;stroke-dasharray:none;stroke-dashoffset:0;stroke-opacity:1"/></g></svg>